<svg width="551" height="82" viewBox="0 0 551 82" fill="none" xmlns="http://www.w3.org/2000/svg">
<g clip-path="url(#clip0_44_581)" filter="url(#filter0_d_44_581)">
<path d="M18.7942 60.1606V43.1217H41.9549V30.5721H18.7942V13.8393H52.1578V1.28967H4V72.7102H53.1781V60.1606L18.7942 60.1606Z" fill="black"/>
<path d="M98.6832 0.575439C80.9301 0.575439 62.6669 15.4717 62.6669 37.1019C62.6669 58.5281 80.9301 73.4244 98.6832 73.4244C108.172 73.4244 116.436 69.8534 122.558 64.2417L113.784 53.6307C110.111 56.6916 105.111 59.5484 98.9893 59.5484C87.7661 59.5484 78.4814 49.6515 78.4814 36.9999C78.4814 24.4503 87.7661 14.4514 98.9893 14.4514C105.111 14.4514 109.906 17.0022 113.477 20.063L122.354 9.452C116.232 3.84039 108.172 0.575439 98.6832 0.575439Z" fill="black"/>
<path d="M306.415 1.28967H291.11L276.316 42.4075L257.645 1.28967H253.564L234.994 42.4075L219.996 1.28967H204.692L231.831 72.7102H235.402L255.604 28.4295L275.806 72.7102H279.275L306.415 1.28967Z" fill="black"/>
<path d="M338.962 1.28967H329.678L299.783 72.7102H315.393L321.821 57.2017H346.921L353.348 72.7102H368.857L338.962 1.28967ZM334.371 25.9808L342.329 45.5704H326.311L334.371 25.9808Z" fill="black"/>
<path d="M400.282 0.575479C387.732 0.575479 376.713 8.12565 376.713 19.3489C376.713 30.8782 385.284 36.6938 396.405 40.571L399.568 41.7953C407.73 44.7542 410.995 46.7947 410.995 52.4064C410.995 58.6301 405.077 61.1809 399.466 61.1809C392.834 61.1809 387.222 56.6916 385.181 51.4881L373.448 56.6916C377.121 66.7925 387.63 73.4244 399.466 73.4244C411.097 73.4244 425.483 66.9965 425.483 52.4064C425.483 42.4075 419.361 34.4492 403.343 28.9396L400.18 27.9193C393.14 25.5726 391.099 23.43 391.099 19.3488C391.099 15.4717 395.384 12.819 400.282 12.819C405.281 12.819 409.26 15.0636 411.097 18.8387L423.647 14.6555C420.076 7.61546 411.913 0.575479 400.282 0.575479Z" fill="black"/>
<path d="M486.803 1.28967H434.462V14.0433H453.031V72.7102H468.335V14.0433H486.803V1.28967Z" fill="black"/>
<path d="M512.616 60.1606V43.1217H535.777V30.5721H512.616V13.8393H545.98V1.28967H497.822V72.7102H547V60.1606L512.616 60.1606Z" fill="black"/>
<path d="M201.121 37C201.121 58.5287 183.163 73.425 165.104 73.425C147.555 73.425 129.19 58.5287 129.19 37C129.19 15.4714 147.555 0.575073 165.104 0.575073C183.163 0.575073 201.121 15.4714 201.121 37ZM165.155 69.9495C183.324 69.9495 198.105 55.1682 198.105 37C198.105 18.8318 183.324 4.05059 165.155 4.05059C146.987 4.05059 132.206 18.8318 132.206 37C132.206 55.1682 146.987 69.9495 165.155 69.9495ZM174.794 18.5559C164.118 29.2308 150.028 35.2379 134.987 35.5928C135.725 19.5897 148.973 6.7964 165.155 6.7964C171.235 6.7964 176.896 8.60792 181.639 11.7107L174.794 18.5559ZM140.444 42.4916H135.461C135.211 41.1359 135.048 39.7506 134.985 38.3386C150.759 37.9837 165.54 31.6917 176.735 20.4965L183.894 13.3382C185.718 14.7852 187.37 16.4375 188.817 18.2614L181.658 25.4197C170.649 36.4289 156.013 42.4916 140.444 42.4916ZM137.606 49.3561C137.009 48.0305 136.506 46.6556 136.103 45.2374H140.444C156.746 45.2374 172.072 38.8884 183.6 27.3609L190.445 20.5157C191.781 22.5593 192.875 24.7724 193.69 27.1173L188.523 32.2841C177.514 43.2934 162.877 49.3561 147.308 49.3561H137.606ZM154.173 56.2205H141.874C140.81 54.9341 139.857 53.5537 139.015 52.1019H147.308C163.61 52.1019 178.936 45.7529 190.464 34.2254L194.561 30.1287C195.078 32.3377 195.359 34.6359 195.359 37C195.359 37.7627 195.321 38.5164 195.265 39.2653C184.27 50.1983 169.685 56.2205 154.173 56.2205ZM154.173 58.9663C169.231 58.9663 183.449 53.5393 194.618 43.6277C191.587 57.1033 179.532 67.2037 165.155 67.2037C157.15 67.2037 149.868 64.0673 144.458 58.9663H154.173Z" fill="black"/>
</g>
<defs>
<filter id="filter0_d_44_581" x="0" y="0.575073" width="551" height="80.85" filterUnits="userSpaceOnUse" color-interpolation-filters="sRGB">
<feFlood flood-opacity="0" result="BackgroundImageFix"/>
<feColorMatrix in="SourceAlpha" type="matrix" values="0 0 0 0 0 0 0 0 0 0 0 0 0 0 0 0 0 0 127 0" result="hardAlpha"/>
<feOffset dy="4"/>
<feGaussianBlur stdDeviation="2"/>
<feComposite in2="hardAlpha" operator="out"/>
<feColorMatrix type="matrix" values="0 0 0 0 0 0 0 0 0 0 0 0 0 0 0 0 0 0 0.25 0"/>
<feBlend mode="normal" in2="BackgroundImageFix" result="effect1_dropShadow_44_581"/>
<feBlend mode="normal" in="SourceGraphic" in2="effect1_dropShadow_44_581" result="shape"/>
</filter>
<clipPath id="clip0_44_581">
<rect width="543" height="72.8499" fill="white" transform="translate(4 0.575073)"/>
</clipPath>
</defs>
</svg>
